<svg xmlns="http://www.w3.org/2000/svg" viewBox="0 0 400 300">
  <!-- Scribbly sky -->
  <rect width="400" height="300" fill="#87CEEB"/>
  
  <!-- Messy ground - like a kid scribbled it -->
  <path d="M0 240 Q15 250 30 238 Q50 255 80 242 Q100 260 140 245 Q170 258 200 240 Q230 262 270 248 Q300 255 340 242 Q370 260 400 245 L400 300 L0 300 Z" fill="#3cb043"/>
  <path d="M0 250 Q40 245 60 258 Q90 248 130 260 Q160 245 200 255 Q240 248 280 258 Q320 250 360 262 Q390 252 400 258" stroke="#228b22" stroke-width="5" fill="none" stroke-linecap="round"/>
  
  <!-- FLOWER 1 - wobbly red blob flower -->
  <path d="M70 245 Q65 220 72 190 Q68 170 75 145 Q70 130 78 120" stroke="#2d5a1d" stroke-width="8" fill="none" stroke-linecap="round" stroke-linejoin="round"/>
  <!-- Messy petals - just blobs -->
  <ellipse cx="78" cy="95" rx="22" ry="28" fill="#ff4444" transform="rotate(-15 78 95)"/>
  <ellipse cx="55" cy="105" rx="20" ry="24" fill="#ff6666" transform="rotate(-40 55 105)"/>
  <ellipse cx="98" cy="100" rx="18" ry="25" fill="#ff5555" transform="rotate(30 98 100)"/>
  <ellipse cx="65" cy="125" rx="16" ry="20" fill="#ff4444" transform="rotate(-20 65 125)"/>
  <ellipse cx="92" cy="122" rx="17" ry="22" fill="#ff5555" transform="rotate(25 92 122)"/>
  <!-- Scribbled center -->
  <circle cx="78" cy="108" r="12" fill="#ffcc00"/>
  <path d="M72 105 Q78 100 84 106 Q80 112 74 108" stroke="#cc9900" stroke-width="3" fill="none"/>
  
  <!-- FLOWER 2 - crazy daisy with uneven petals -->
  <path d="M200 248 Q195 215 205 180 Q198 150 208 120" stroke="#1e4d12" stroke-width="9" fill="none" stroke-linecap="round"/>
  <!-- Wonky petals - all different sizes -->
  <ellipse cx="208" cy="85" rx="14" ry="30" fill="#fff44f" transform="rotate(5 208 85)"/>
  <ellipse cx="180" cy="100" rx="12" ry="26" fill="#ffff66" transform="rotate(-55 180 100)"/>
  <ellipse cx="235" cy="95" rx="15" ry="24" fill="#fff44f" transform="rotate(45 235 95)"/>
  <ellipse cx="175" cy="125" rx="10" ry="22" fill="#ffff66" transform="rotate(-75 175 125)"/>
  <ellipse cx="242" cy="120" rx="13" ry="20" fill="#fff44f" transform="rotate(70 242 120)"/>
  <ellipse cx="195" cy="145" rx="11" ry="18" fill="#ffff66" transform="rotate(-85 195 145)"/>
  <ellipse cx="225" cy="142" rx="12" ry="19" fill="#fff44f" transform="rotate(80 225 142)"/>
  <!-- Big messy center -->
  <circle cx="208" cy="115" r="18" fill="#ff8c00"/>
  <path d="M200 110 Q208 105 216 112 Q210 120 202 115" stroke="#cc6600" stroke-width="4" fill="none"/>
  
  <!-- FLOWER 3 - purple scribble flower -->
  <path d="M320 242 Q325 210 315 175 Q322 145 312 115" stroke="#2a6b1a" stroke-width="7" fill="none" stroke-linecap="round"/>
  <!-- Blobby purple petals -->
  <circle cx="312" cy="85" r="18" fill="#9932cc"/>
  <circle cx="335" cy="95" r="16" fill="#ba55d3"/>
  <circle cx="290" cy="92" r="17" fill="#9932cc"/>
  <circle cx="298" cy="115" r="15" fill="#ba55d3"/>
  <circle cx="328" cy="112" r="16" fill="#9932cc"/>
  <circle cx="312" cy="100" r="11" fill="#ffdd00"/>
  
  <!-- Scribbly sun - very childish -->
  <circle cx="55" cy="55" r="35" fill="#ffdd00"/>
  <path d="M55 10 Q50 -5 58 -8" stroke="#ff9900" stroke-width="6" fill="none" stroke-linecap="round"/>
  <path d="M95 30 Q110 20 115 15" stroke="#ff9900" stroke-width="6" fill="none" stroke-linecap="round"/>
  <path d="M100 60 Q115 55 120 62" stroke="#ff9900" stroke-width="6" fill="none" stroke-linecap="round"/>
  <path d="M90 85 Q105 100 108 110" stroke="#ff9900" stroke-width="6" fill="none" stroke-linecap="round"/>
  <path d="M55 100 Q52 115 58 125" stroke="#ff9900" stroke-width="6" fill="none" stroke-linecap="round"/>
  <path d="M20 80 Q5 90 0 100" stroke="#ff9900" stroke-width="6" fill="none" stroke-linecap="round"/>
  <path d="M15 55 Q-2 50 -8 55" stroke="#ff9900" stroke-width="6" fill="none" stroke-linecap="round"/>
  <path d="M22 28 Q8 15 5 5" stroke="#ff9900" stroke-width="6" fill="none" stroke-linecap="round"/>
  <!-- Wonky face -->
  <circle cx="42" cy="50" r="6" fill="#222"/>
  <circle cx="68" cy="48" r="7" fill="#222"/>
  <path d="M38 70 Q55 88 72 68" stroke="#222" stroke-width="5" fill="none" stroke-linecap="round"/>
  
  <!-- Messy butterfly - just shapes -->
  <ellipse cx="300" cy="55" rx="25" ry="18" fill="#ff69b4" transform="rotate(-15 300 55)"/>
  <ellipse cx="340" cy="50" rx="22" ry="16" fill="#ff1493" transform="rotate(20 340 50)"/>
  <ellipse cx="305" cy="75" rx="18" ry="14" fill="#ffb6c1" transform="rotate(-25 305 75)"/>
  <ellipse cx="338" cy="72" rx="16" ry="12" fill="#ff69b4" transform="rotate(30 338 72)"/>
  <ellipse cx="320" cy="62" rx="6" ry="15" fill="#333"/>
  <path d="M318 47 Q310 35 305 30" stroke="#333" stroke-width="3" fill="none"/>
  <path d="M322 47 Q330 38 338 32" stroke="#333" stroke-width="3" fill="none"/>
  
  <!-- Random grass scribbles -->
  <path d="M15 248 Q10 230 20 210" stroke="#228b22" stroke-width="4" fill="none" stroke-linecap="round"/>
  <path d="M30 252 Q38 235 32 215" stroke="#32cd32" stroke-width="4" fill="none" stroke-linecap="round"/>
  <path d="M130 245 Q125 228 135 212" stroke="#228b22" stroke-width="4" fill="none" stroke-linecap="round"/>
  <path d="M265 250 Q272 232 262 218" stroke="#32cd32" stroke-width="4" fill="none" stroke-linecap="round"/>
  <path d="M370 248 Q365 230 375 215" stroke="#228b22" stroke-width="4" fill="none" stroke-linecap="round"/>
  <path d="M385 252 Q392 238 382 222" stroke="#32cd32" stroke-width="4" fill="none" stroke-linecap="round"/>
</svg>
